<svg width="43" height="51" viewBox="0 0 43 51" fill="none" xmlns="http://www.w3.org/2000/svg">
<path d="M42.875 41.125V43.5H0.125V41.125L4.875 36.375V22.125C4.875 14.7625 9.69625 8.27875 16.75 6.18875V5.5C16.75 4.24022 17.2504 3.03204 18.1412 2.14124C19.032 1.25044 20.2402 0.75 21.5 0.75C22.7598 0.75 23.968 1.25044 24.8588 2.14124C25.7496 3.03204 26.25 4.24022 26.25 5.5V6.18875C33.3037 8.27875 38.125 14.7625 38.125 22.125V36.375L42.875 41.125ZM26.25 45.875C26.25 47.1348 25.7496 48.343 24.8588 49.2338C23.968 50.1246 22.7598 50.625 21.5 50.625C20.2402 50.625 19.032 50.1246 18.1412 49.2338C17.2504 48.343 16.75 47.1348 16.75 45.875" fill="#8E8D8D"/>
</svg>
